<?xml version="1.0" encoding="UTF-8"?>
<svg preserveAspectRatio="xMidYMid slice" xmlns="http://www.w3.org/2000/svg" xmlns:xlink="http://www.w3.org/1999/xlink" width="30px" height="9px" viewBox="0 0 189 59" version="1.1">
  <title>2018_inverde-RGB</title>
  <g id="Symbols" stroke="none" stroke-width="1" fill="none" fill-rule="evenodd">
    <g id="Component/Nav/Full-Footer-+-Logo's" transform="translate(-513.000000, -660.000000)">
      <g id="Group-3" transform="translate(280.000000, 656.000000)">
        <g id="2018_inverde-RGB" transform="translate(233.000000, 4.000000)">
          <polygon id="Fill-1" fill="#175C52" points="0 59 5 59 5 36 0 36"></polygon>
          <path d="M16.3892221,39.3519137 C16.8703435,38.8492165 17.3686478,38.3945543 17.8856512,37.9871564 C18.4021492,37.5800154 18.9522549,37.2286155 19.5341996,36.9326997 C20.1163969,36.636784 20.7352343,36.407141 21.3907117,36.2440277 C22.0456837,36.0816851 22.7592797,36 23.5307417,36 C24.7542658,36 25.8276921,36.2072951 26.7525369,36.6218854 C27.6766235,37.0362189 28.4556662,37.6206011 29.0889069,38.3755459 C29.7224003,39.1302338 30.1989733,40.0367326 30.5196367,41.0955561 C30.8397947,42.1533522 31,43.319291 31,44.5918315 L31,59 L26.3262492,59 L26.3262492,44.5918315 C26.3262492,43.067814 25.9805695,41.8836373 25.2887048,41.0398151 C24.5970927,40.1959928 23.5456504,39.774467 22.133367,39.774467 C21.084957,39.774467 20.1131119,40.0184947 19.2175792,40.507064 C18.3222992,40.9953763 17.4813475,41.6611867 16.6949768,42.5047521 L16.6949768,59 L12,59 L12,36.355253 L14.8392228,36.355253 C15.4792861,36.355253 15.8868748,36.6591318 16.0619888,37.2650912 L16.3892221,39.3519137" id="Fill-2" fill="#175C52"></path>
          <path d="M58,36 L49.1044068,59 L44.8950912,59 L36,36 L39.8397955,36 C40.2012825,36 40.5020197,36.0939244 40.7405007,36.2820341 C40.9789817,36.4701438 41.134622,36.6916489 41.2069194,36.9468102 L46.1103403,50.3409524 C46.3126726,50.972594 46.492914,51.5964086 46.6528218,52.2126571 C46.8117255,52.8289056 46.9492914,53.4527202 47.0650175,54.0843618 C47.1807435,53.4527202 47.3215728,52.83308 47.4877565,52.2241368 C47.6541911,51.6149326 47.8384491,50.9879872 48.0412835,50.3409524 L53.0313106,36.9468102 C53.1181679,36.6762557 53.2768206,36.4508372 53.5085237,36.2708154 C53.7399758,36.0905327 54.0221365,36 54.3547548,36 L58,36" id="Fill-3" fill="#175C52"></path>
          <path d="M76.7994133,44.9942974 C76.7994133,44.2065811 76.6871089,43.4733035 76.4625002,42.7952244 C76.237136,42.1163856 75.9072733,41.5259148 75.4716532,41.0227993 C75.0365367,40.5191774 74.4961663,40.1251927 73.8507938,39.8405918 C73.2051695,39.555991 72.4613419,39.4139438 71.620318,39.4139438 C69.9221549,39.4139438 68.5875962,39.9031331 67.6158863,40.8799925 C66.6436728,41.8576115 66.0270059,43.2294685 65.7658857,44.9942974 L76.7994133,44.9942974 Z M65.6349478,47.883097 C65.6926108,49.1524065 65.8890176,50.250044 66.2226573,51.1767691 C66.5565488,52.103241 67.0024929,52.8724735 67.5612449,53.4854793 C68.1197452,54.0977256 68.7870246,54.5539984 69.5635867,54.8527786 C70.3393934,55.1520653 71.2061012,55.3012022 72.1642137,55.3012022 C73.0782605,55.3012022 73.8686719,55.1961227 74.5362031,54.9844445 C75.2034824,54.7727663 75.7836378,54.5390594 76.2769209,54.2838302 C76.7704559,54.0288542 77.1914714,53.7951473 77.5392121,53.5834691 C77.8877082,53.3725505 78.2064915,53.2659518 78.4973246,53.2659518 C78.8740227,53.2659518 79.1641004,53.4125567 79.3675576,53.7042472 L80.6953177,55.432868 C80.1433643,56.0889185 79.519647,56.6441939 78.8231584,57.0956559 C78.1269216,57.5486371 77.3871228,57.9165419 76.6037619,58.2011427 C75.8201493,58.4854903 75.0146298,58.6895724 74.1882106,58.8141486 C73.3610359,58.9379651 72.5557682,59 71.7724074,59 C70.2341395,59 68.8086797,58.7404663 67.4960278,58.2229182 C66.1823687,57.7053701 65.0439649,56.9429742 64.0788019,55.9362367 C63.1143943,54.9294993 62.3597391,53.6824717 61.8155917,52.1943943 C61.2719478,50.7063169 61,48.9916223 61,47.0513233 C61,45.5055154 61.2424868,44.0607358 61.7289713,42.7185037 C62.2147003,41.3762715 62.9109371,40.209003 63.8184371,39.2172046 C64.7244262,38.2248998 65.8275775,37.4407283 67.1256248,36.8646902 C68.4244275,36.2881457 69.8934493,36 71.5329422,36 C72.8964584,36 74.1587495,36.2225659 75.3195639,36.6676978 C76.4803782,37.1128297 77.4815491,37.7653353 78.3228247,38.6262275 C79.1641004,39.4868664 79.8205522,40.5404465 80.2921802,41.7884869 C80.7638083,43.036021 81,44.4547206 81,46.0448391 C81,46.7745718 80.9196747,47.2630015 80.7605348,47.5108878 C80.6008914,47.7592805 80.3108137,47.883097 79.8897982,47.883097 L65.6349478,47.883097 L65.6349478,47.883097 Z" id="Fill-4" fill="#175C52"></path>
          <path d="M91.4275509,40.6042518 C92.1261065,39.1729791 92.9692693,38.0475294 93.9575439,37.2284152 C94.9468279,36.4090448 96.1314451,36 97.513162,36 C97.9926619,36 98.4436442,36.0548125 98.8656041,36.1657182 C99.286807,36.2761117 99.6648548,36.4423422 100,36.6638975 L99.6726782,40.2500195 C99.6141287,40.5012862 99.5235285,40.6741762 99.399868,40.7702262 C99.2764599,40.8662762 99.1126728,40.9136608 98.9092639,40.9136608 C98.6912176,40.9136608 98.3780284,40.8731918 97.971463,40.7925098 C97.563888,40.7113155 97.1348618,40.6703342 96.6846366,40.6703342 C96.029993,40.6703342 95.4518171,40.7668964 94.9498563,40.958228 C94.4484004,41.1500718 93.9976704,41.4307939 93.5981713,41.7993697 C93.1981674,42.1684577 92.8456088,42.61874 92.5402431,43.1502166 C92.2346249,43.681437 91.9512153,44.2864238 91.6892569,44.9654331 L91.6892569,59 L87,59 L87,36.4203147 L89.7263356,36.4203147 C90.2204729,36.4203147 90.5624321,36.5125227 90.7517083,36.6971948 C90.9407323,36.8818669 91.0712067,37.203058 91.1438888,37.6597436 L91.4275509,40.6042518" id="Fill-5" fill="#175C52"></path>
          <path d="M118.326358,41.6943526 C117.673894,40.8408185 116.956536,40.2454899 116.173781,39.9063238 C115.391277,39.5679238 114.543879,39.3988515 113.630329,39.3988515 C111.804739,39.3988515 110.376563,40.0794824 109.347813,41.4404888 C108.319063,42.802006 107.804437,44.8145282 107.804437,47.4777999 C107.804437,48.8607704 107.920391,50.0419779 108.1523,51.0204007 C108.383706,51.999079 108.717735,52.7971922 109.152376,53.4155064 C109.587016,54.0330545 110.115728,54.4822964 110.739518,54.7616999 C111.362553,55.0416141 112.065573,55.1813158 112.847574,55.1813158 C114.036044,55.1813158 115.061775,54.9203009 115.923762,54.3977603 C116.786,53.8757304 117.587117,53.1358476 118.326358,52.1793888 L118.326358,41.6943526 Z M123,26 L123,58.6687511 L120.173579,58.6687511 C119.550796,58.6687511 119.152627,58.3673836 118.978067,57.7641377 L118.565561,55.3136111 C117.637925,56.4171781 116.58352,57.3077447 115.402093,57.9845447 C114.220666,58.6613446 112.847574,59 111.28307,59 C110.036245,59 108.905627,58.7461362 107.891466,58.2384085 C106.876802,57.7309362 106.007521,56.9913088 105.282365,56.0205478 C104.558216,55.0485098 103.996806,53.845849 103.597882,52.4112885 C103.19921,50.9762172 103,49.3319764 103,47.4777999 C103,45.7998468 103.221093,44.2475486 103.663531,42.8201392 C104.105214,41.3927297 104.739568,40.1530365 105.565083,39.1005487 C106.391352,38.0485717 107.394698,37.2246635 108.576125,36.6285688 C109.757301,36.032474 111.079835,35.7349374 112.543728,35.7349374 C113.847649,35.7349374 114.956637,35.9443623 115.869432,36.3637229 C116.78273,36.7828281 117.601454,37.3679408 118.326358,38.1182949 L118.326358,26 L123,26 L123,26 Z" id="Fill-6" fill="#175C52"></path>
          <path d="M144.799214,44.9942974 C144.799214,44.2065811 144.687163,43.4733035 144.462305,42.7952244 C144.236944,42.1163856 143.907337,41.5259148 143.471471,41.0227993 C143.036612,40.5191774 142.495996,40.1251927 141.850632,39.8405918 C141.205016,39.555991 140.461198,39.4139438 139.620184,39.4139438 C137.922043,39.4139438 136.587501,39.9031331 135.615803,40.8799925 C134.643854,41.8576115 134.027194,43.2294685 133.766077,44.9942974 L144.799214,44.9942974 Z M133.634889,47.883097 C133.692552,49.1524065 133.889208,50.250044 134.222843,51.1767691 C134.556479,52.103241 135.002417,52.8724735 135.561162,53.4854793 C136.119656,54.0977256 136.787178,54.5539984 137.563479,54.8527786 C138.339276,55.1520653 139.206225,55.3012022 140.164325,55.3012022 C141.078108,55.3012022 141.86851,55.1961227 142.536033,54.9844445 C143.203304,54.7727663 143.783452,54.5390594 144.27698,54.2838302 C144.770509,54.0288542 145.191519,53.7951473 145.539004,53.5834691 C145.887496,53.3725505 146.206527,53.2659518 146.497104,53.2659518 C146.873798,53.2659518 147.163872,53.4125567 147.367326,53.7042472 L148.69507,55.432868 C148.143123,56.0889185 147.519414,56.6441939 146.823186,57.0956559 C146.126958,57.5486371 145.387168,57.9165419 144.603565,58.2011427 C143.819963,58.4854903 143.014705,58.6895724 142.188296,58.8141486 C141.361132,58.9379651 140.555623,59 139.772272,59 C138.234023,59 136.808833,58.7404663 135.495946,58.2229182 C134.182303,57.7053701 133.043914,56.9429742 132.078763,55.9362367 C131.114368,54.9294993 130.359722,53.6824717 129.815581,52.1943943 C129.272196,50.7063169 129,48.9916223 129,47.0513233 C129,45.5055154 129.242736,44.0607358 129.728962,42.7185037 C130.214685,41.3762715 130.911165,40.209003 131.818402,39.2172046 C132.724379,38.2248998 133.827517,37.4407283 135.125799,36.8646902 C136.424334,36.2881457 137.893337,36 139.53281,36 C140.89656,36 142.158836,36.2225659 143.319635,36.6676978 C144.480183,37.1128297 145.481342,37.7653353 146.322607,38.6262275 C147.163872,39.4868664 147.820315,40.5404465 148.291937,41.7884869 C148.763559,43.036021 149,44.4547206 149,46.0448391 C149,46.7745718 148.919676,47.2630015 148.760286,47.5108878 C148.600896,47.7592805 148.310571,47.883097 147.88956,47.883097 L133.634889,47.883097 L133.634889,47.883097 Z" id="Fill-7" fill="#175C52"></path>
          <text id="-" font-family="LucidaGrande, Lucida Grande" font-size="18.6174555" font-weight="normal"></text>
          <path d="M186,10.1517319 L186,39.8953128 C186,39.9281406 186.008247,39.9653627 186.010308,40 L188.989692,40 C188.992784,39.9653627 189,39.9281406 189,39.8953128 L189,10.1517319 C189,10.1026193 188.989692,10.0511804 188.984795,10 L186.016236,10 C186.010308,10.0511804 186,10.1026193 186,10.1517319" id="Fill-8" fill="#175C52"></path>
          <polygon id="Fill-9" fill="#175C52" points="172 59 175 59 175 10 172 10"></polygon>
          <polygon id="Fill-10" fill="#175C52" points="165 37 168 37 168 0 165 0"></polygon>
          <polygon id="Fill-11" fill="#175C52" points="158 45 161 45 161 17 158 17"></polygon>
          <polygon id="Fill-12" fill="#175C52" points="179 45 182 45 182 17 179 17"></polygon>
        </g>
      </g>
    </g>
  </g>
</svg>
