<?xml version="1.0" encoding="UTF-8"?>
<svg preserveAspectRatio="xMidYMid slice" xmlns="http://www.w3.org/2000/svg" id="Laag_1" data-name="Laag 1" width="60px" height="18px" viewBox="0 0 957.61 298.93">
  <defs>
    <style>.cls-1{fill:#a0b100;}.cls-2{font-size:79.78px;font-family:FlandersArtSans-Light, Flanders Art Sans;}.cls-2,.cls-3{fill:#b2b2b2;}</style>
  </defs>
  <title>logo</title>
  <path class="cls-1" d="M215.58,382.8V497.61h-24.2V382.8Z" transform="translate(-191.39 -200.37)"></path>
  <path class="cls-1" d="M274.34,398a73.91,73.91,0,0,1,7.71-6.92,51.19,51.19,0,0,1,8.5-5.35,45.48,45.48,0,0,1,9.57-3.49,46.5,46.5,0,0,1,11-1.24,40.84,40.84,0,0,1,16.6,3.15,33.19,33.19,0,0,1,12,8.89,38.31,38.31,0,0,1,7.37,13.79,60.11,60.11,0,0,1,2.48,17.73v73H325.55v-73q0-11.59-5.35-18t-16.26-6.42a31.3,31.3,0,0,0-15,3.71,51.54,51.54,0,0,0-13,10.13v83.63h-24.2V382.8h14.63q4.95,0,6.3,4.61Z" transform="translate(-191.39 -200.37)"></path>
  <path class="cls-1" d="M484.71,382.8,438.56,497.61H416.72L370.57,382.8h19.92a7.51,7.51,0,0,1,4.67,1.41,6.44,6.44,0,0,1,2.42,3.32L423,454.38q1.57,4.73,2.81,9.34t2.14,9.34q.9-4.73,2.19-9.29t2.87-9.4l25.89-66.86a6.86,6.86,0,0,1,2.48-3.38,7.12,7.12,0,0,1,4.39-1.35Z" transform="translate(-191.39 -200.37)"></path>
  <path class="cls-1" d="M524.43,442.12a57.62,57.62,0,0,0,3,16.94,34.9,34.9,0,0,0,6.92,11.87,26.9,26.9,0,0,0,10.35,7,37.29,37.29,0,0,0,13.45,2.31,41,41,0,0,0,12.27-1.63,57.57,57.57,0,0,0,9-3.6q3.83-2,6.53-3.6a9.78,9.78,0,0,1,5-1.63,5.17,5.17,0,0,1,4.5,2.25l6.87,8.89a43.6,43.6,0,0,1-9.68,8.55,56.2,56.2,0,0,1-11.48,5.69,65.07,65.07,0,0,1-12.49,3.15,84.78,84.78,0,0,1-12.5,1,60.07,60.07,0,0,1-22.12-4,49.15,49.15,0,0,1-17.67-11.76,54.33,54.33,0,0,1-11.71-19.25,76.49,76.49,0,0,1-4.22-26.45,64.6,64.6,0,0,1,3.77-22.29,53.08,53.08,0,0,1,10.81-18,50.67,50.67,0,0,1,17.11-12.1A55.91,55.91,0,0,1,554.94,381a54.51,54.51,0,0,1,19.58,3.44,42.93,42.93,0,0,1,15.53,10.07,46.33,46.33,0,0,1,10.19,16.27,61.28,61.28,0,0,1,3.66,21.89q0,5.63-1.24,7.54t-4.5,1.91Zm57.74-14.86a35.59,35.59,0,0,0-1.74-11.31,26.46,26.46,0,0,0-5.12-9.12,23.35,23.35,0,0,0-8.38-6.08,28.5,28.5,0,0,0-11.54-2.19q-13.17,0-20.71,7.54t-9.57,21.16Z" transform="translate(-191.39 -200.37)"></path>
  <path class="cls-1" d="M654.88,404.07q5.41-10.92,13.06-17.17a28.09,28.09,0,0,1,18.35-6.25,27.74,27.74,0,0,1,7,.84,19.65,19.65,0,0,1,5.85,2.53l-1.69,18.23a4.53,4.53,0,0,1-1.41,2.65,4.06,4.06,0,0,1-2.53.73,27.19,27.19,0,0,1-4.84-.62,34.54,34.54,0,0,0-6.64-.62,25.36,25.36,0,0,0-9,1.46,21.61,21.61,0,0,0-7,4.28,28.77,28.77,0,0,0-5.46,6.87,66.18,66.18,0,0,0-4.39,9.23v71.36H632V382.8h14.07q3.82,0,5.29,1.41t2,4.9Z" transform="translate(-191.39 -200.37)"></path>
  <path class="cls-1" d="M818.2,331V497.61H803.57a5.88,5.88,0,0,1-6.19-4.61l-2.14-12.5a60.62,60.62,0,0,1-16.38,13.62,42.66,42.66,0,0,1-21.33,5.18A39.17,39.17,0,0,1,740,495.41a37.8,37.8,0,0,1-13.51-11.31,54.89,54.89,0,0,1-8.72-18.4,92.86,92.86,0,0,1-3.1-25.16,78.76,78.76,0,0,1,3.44-23.75,58,58,0,0,1,9.85-19,44.9,44.9,0,0,1,36.13-17.16q10.13,0,17.22,3.21A41.86,41.86,0,0,1,794,392.82V331Zm-24.2,80a28.5,28.5,0,0,0-11.14-9.12,33.25,33.25,0,0,0-13.17-2.59q-14.18,0-22.17,10.41t-8,30.79a78.21,78.21,0,0,0,1.8,18.06,34.92,34.92,0,0,0,5.18,12.21,19.93,19.93,0,0,0,8.22,6.86,26.72,26.72,0,0,0,10.92,2.14,30.5,30.5,0,0,0,15.93-4A45.89,45.89,0,0,0,794,464.52Z" transform="translate(-191.39 -200.37)"></path>
  <path class="cls-1" d="M870.88,442.12a57.62,57.62,0,0,0,3,16.94,34.9,34.9,0,0,0,6.92,11.87,26.9,26.9,0,0,0,10.35,7,37.29,37.29,0,0,0,13.45,2.31,41,41,0,0,0,12.27-1.63,57.57,57.57,0,0,0,9-3.6q3.83-2,6.53-3.6a9.78,9.78,0,0,1,5-1.63,5.17,5.17,0,0,1,4.5,2.25l6.87,8.89a43.6,43.6,0,0,1-9.68,8.55,56.2,56.2,0,0,1-11.48,5.69,65.07,65.07,0,0,1-12.49,3.15,84.78,84.78,0,0,1-12.5,1,60.07,60.07,0,0,1-22.12-4,49.15,49.15,0,0,1-17.67-11.76,54.33,54.33,0,0,1-11.71-19.25,76.49,76.49,0,0,1-4.22-26.45,64.6,64.6,0,0,1,3.77-22.29,53.08,53.08,0,0,1,10.81-18,50.67,50.67,0,0,1,17.11-12.1A55.91,55.91,0,0,1,901.38,381,54.51,54.51,0,0,1,921,384.43a42.93,42.93,0,0,1,15.53,10.07,46.33,46.33,0,0,1,10.19,16.27,61.28,61.28,0,0,1,3.66,21.89q0,5.63-1.24,7.54t-4.5,1.91Zm57.74-14.86a35.59,35.59,0,0,0-1.74-11.31,26.46,26.46,0,0,0-5.12-9.12,23.35,23.35,0,0,0-8.38-6.08,28.5,28.5,0,0,0-11.54-2.19q-13.17,0-20.71,7.54t-9.57,21.16Z" transform="translate(-191.39 -200.37)"></path>
  <text class="cls-2" transform="translate(835.18 114.04)"> </text>
  <path class="cls-3" d="M1133.84,252.5V402.35c0,.17,0,.35.05.53h15.06c0-.18.05-.36.05-.53V252.5c0-.25-.05-.51-.08-.77h-15A6.72,6.72,0,0,0,1133.84,252.5Z" transform="translate(-191.39 -200.37)"></path>
  <rect class="cls-3" x="873.18" y="47.08" width="15.16" height="251.61"></rect>
  <rect class="cls-3" x="838.54" width="15.16" height="189.85"></rect>
  <rect class="cls-3" x="803.91" y="84.38" width="15.15" height="141"></rect>
  <rect class="cls-1" x="907.83" y="84.38" width="15.14" height="141"></rect>
</svg>
